<?xml version="1.0" standalone="no"?>
<!DOCTYPE svg PUBLIC "-//W3C//DTD SVG 20010904//EN"
 "http://www.w3.org/TR/2001/REC-SVG-20010904/DTD/svg10.dtd">
<svg version="1.0" xmlns="http://www.w3.org/2000/svg"
 width="256.000000pt" height="256.000000pt" viewBox="0 0 256.000000 256.000000"
 preserveAspectRatio="xMidYMid meet">
<metadata>
Created by potrace 1.11, written by Peter Selinger 2001-2013
</metadata>
<g transform="translate(0.000000,256.000000) scale(0.100000,-0.100000)"
fill="#000000" stroke="none">
<path d="M710 2070 c-69 -26 -117 -64 -155 -125 l-30 -48 -3 -230 c-3 -182 -1
-232 10 -238 7 -5 45 -9 85 -9 l72 0 3 63 3 62 148 3 147 3 0 -60 c0 -69 2
-71 101 -71 l69 0 0 211 c0 128 -4 227 -11 249 -20 67 -78 132 -152 169 -88
45 -200 53 -287 21z m220 -145 c45 -23 60 -62 60 -155 l0 -81 -147 3 -148 3 0
77 c0 87 17 120 76 150 42 22 120 23 159 3z"/>
<path d="M1450 1760 l0 -330 23 -5 c12 -3 148 -4 302 -3 l280 3 3 58 c2 33 -3
71 -10 88 l-13 29 -267 0 -268 0 0 223 c0 122 -3 232 -6 245 -4 13 -14 22 -25
22 -18 0 -19 -13 -19 -330z"/>
<path d="M794 1150 c-100 -21 -176 -74 -219 -151 -29 -52 -30 -59 -30 -179 0
-117 2 -129 28 -182 33 -67 80 -111 157 -147 48 -23 68 -26 160 -26 94 0 110
3 155 27 101 54 155 134 155 232 0 91 10 86 -181 86 l-169 0 0 -150 0 -150
-23 0 c-40 0 -112 29 -151 62 -61 50 -76 94 -76 224 0 103 2 116 28 165 55
105 186 163 319 141 87 -15 138 -50 176 -122 36 -70 67 -92 67 -50 0 64 -91
168 -175 199 -64 24 -163 33 -221 21z m351 -389 c12 -20 -9 -95 -39 -139 -23
-34 -48 -55 -94 -79 -35 -18 -75 -33 -88 -33 l-24 0 0 124 c0 90 3 126 13 129
22 10 226 7 232 -2z"/>
<path d="M1589 1145 c-69 -22 -140 -75 -174 -130 -29 -47 -30 -52 -33 -194
l-3 -146 33 -55 c64 -106 175 -165 313 -164 99 0 184 34 243 98 62 67 75 113
70 258 -3 114 -5 127 -33 177 -34 61 -90 111 -161 143 -63 28 -189 34 -255 13z
m202 -194 c28 -29 29 -32 29 -131 0 -118 -13 -154 -65 -176 -44 -18 -69 -18
-110 2 -47 22 -58 57 -53 169 3 83 7 97 28 121 51 54 125 60 171 15z"/>
</g>
</svg>
